<svg xmlns="http://www.w3.org/2000/svg" width="31.071" height="31.071" viewBox="0 0 31.071 31.071">
  <path id="Path_44" data-name="Path 44" d="M141.828,112H113.243A1.242,1.242,0,0,0,112,113.243v28.585a1.242,1.242,0,0,0,1.243,1.243h28.585a1.242,1.242,0,0,0,1.243-1.243V113.243A1.242,1.242,0,0,0,141.828,112Zm-3.589,9.069h-2.482c-1.946,0-2.323.924-2.323,2.284v2.994h4.645l-.606,4.688h-4.039v12.036h-4.843V131.039h-4.051v-4.692h4.051V122.89c0-4.012,2.451-6.2,6.032-6.2a32.784,32.784,0,0,1,3.62.186v4.191Z" transform="translate(-112 -112)" fill="#757575" stroke="#000" stroke-width="0"/>
</svg>
