<svg xmlns="http://www.w3.org/2000/svg" width="31.002" height="30.181" viewBox="0 0 31.002 30.181">
  <path id="Path_36" data-name="Path 36" d="M79.5,76.3a15.495,15.495,0,0,0-5.119,30.122c.814.2.689-.374.689-.769v-2.684c-4.7.551-4.89-2.56-5.206-3.079-.637-1.088-2.144-1.365-1.694-1.884,1.07-.551,2.161.139,3.425,2.005.914,1.354,2.7,1.126,3.6.9a4.369,4.369,0,0,1,1.2-2.106c-4.87-.873-6.9-3.844-6.9-7.377a6.818,6.818,0,0,1,1.673-4.561,6.042,6.042,0,0,1,.17-4.156c2.012-.18,4.1,1.441,4.267,1.569a16.378,16.378,0,0,1,7.841.01,6.947,6.947,0,0,1,4.2-1.52,6.084,6.084,0,0,1,.19,4.087,6.821,6.821,0,0,1,1.694,4.582c0,3.54-2.043,6.515-6.927,7.374a4.416,4.416,0,0,1,1.32,3.152v3.9c.028.312,0,.62.52.62A15.5,15.5,0,0,0,79.5,76.3Z" transform="translate(-64 -76.3)" fill="#757575" stroke="#000" stroke-width="0"/>
</svg>
