<svg xmlns="http://www.w3.org/2000/svg" width="31.961" height="31.961" viewBox="0 0 31.961 31.961">
  <path id="Path_33" data-name="Path 33" d="M128.347,120.051a8.2,8.2,0,1,0,8.2,8.2A8.188,8.188,0,0,0,128.347,120.051Zm0,13.529a5.329,5.329,0,1,1,5.329-5.329A5.34,5.34,0,0,1,128.347,133.58Zm8.535-15.775a1.913,1.913,0,1,0,1.355.56A1.913,1.913,0,0,0,136.882,117.8Zm7.448,10.446c0-2.207.02-4.394-.1-6.6a8.843,8.843,0,0,0-9.279-9.279c-2.207-.124-4.394-.1-6.6-.1s-4.394-.02-6.6.1a8.843,8.843,0,0,0-9.279,9.279c-.124,2.207-.1,4.394-.1,6.6s-.02,4.394.1,6.6a8.843,8.843,0,0,0,9.279,9.279c2.207.124,4.394.1,6.6.1s4.394.02,6.6-.1a8.843,8.843,0,0,0,9.279-9.279C144.354,132.644,144.33,130.457,144.33,128.251Zm-3.518,9.427a5.454,5.454,0,0,1-3.038,3.038c-2.1.836-7.1.648-9.427.648s-7.328.188-9.431-.644a5.454,5.454,0,0,1-3.038-3.038c-.832-2.107-.644-7.1-.644-9.431s-.188-7.328.644-9.431a5.08,5.08,0,0,1,1.207-1.831,5.168,5.168,0,0,1,1.831-1.207c2.1-.832,7.1-.644,9.431-.644s7.328-.188,9.431.644a5.454,5.454,0,0,1,3.038,3.038c.832,2.1.644,7.1.644,9.431S141.647,135.575,140.812,137.677Z" transform="translate(-112.37 -112.27)" fill="#757575" stroke="#867874" stroke-width="0"/>
</svg>
