<svg xmlns="http://www.w3.org/2000/svg" width="32.448" height="31.961" viewBox="0 0 32.448 31.961">
  <path id="Path_35" data-name="Path 35" d="M117.664,127.717h6.727v21.348h-6.727Zm3.366-2.919a3.847,3.847,0,1,0-3.9-3.847,3.877,3.877,0,0,0,3.9,3.847Zm14.3,13.7c0-2.785.538-5.48,4.035-5.48,3.445,0,3.5,3.182,3.5,5.659v10.383h6.721V137.357c0-5.748-1.258-10.171-8.064-10.171a7.1,7.1,0,0,0-6.364,3.45h-.091v-2.919h-6.455v21.348h6.721Z" transform="translate(-117.131 -117.104)" fill="#757575" stroke="#000" stroke-width="0"/>
</svg>
