<svg xmlns="http://www.w3.org/2000/svg" width="121" height="121.036" viewBox="0 0 121 121.036">
  <g id="_20315248251598811063" data-name="20315248251598811063" transform="translate(-6.681 -6.302)">
    <circle id="XMLID_8234_" cx="60.5" cy="60.5" r="60.5" transform="translate(6.681 6.302)" fill="#c1e8f7"/>
    <g id="XMLID_7856_" transform="translate(23.938 28.393)">
      <path id="XMLID_7872_" d="M320.55,319.173c.123.119.238.234.342.337A1.89,1.89,0,0,0,320.55,319.173Z" transform="translate(-261.648 -265.348)" fill="none"/>
      <path id="XMLID_7871_" d="M194.884,318.765a1.922,1.922,0,0,0-.577.568C194.472,319.168,194.664,318.98,194.884,318.765Z" transform="translate(-166.038 -265.039)" fill="none"/>
      <path id="XMLID_7870_" d="M222.835,297.712a.116.116,0,1,0,.22,0c7.2-5.516,10.03-9.213,11.291-10.191a15.552,15.552,0,0,1-1.358-5.192c-.15.139-.3.28-.45.415a18.033,18.033,0,0,1-2.778,2.032,13.423,13.423,0,0,1-2.675,1.207,12.723,12.723,0,0,1-2.612.542,13,13,0,0,1-3.325-.1,12.579,12.579,0,0,1-2.625-.715,14.321,14.321,0,0,1-2.7-1.425,20.249,20.249,0,0,1-2.815-2.3l-.013-.013a15.807,15.807,0,0,1-1.412,5.574C212.862,288.575,215.7,292.251,222.835,297.712Z" transform="translate(-179.121 -237.178)" fill="#ffddca"/>
      <path id="XMLID_7869_" d="M205.957,344.131c-.973-2.179-2.061-3.424-2.179-5.231a4.895,4.895,0,0,0-1.62,3.371c.292,3.09-8.707-7.29-9.83-12.541-.113.923-.191,3.041,2.639,7.212,1.4,2.061,5.115,12.679,8.775,24.11,1.153-7.694,2.258-14.679,2.6-16.539A.908.908,0,0,1,205.957,344.131Z" transform="translate(-164.508 -273.343)" fill="#93afca"/>
      <path id="XMLID_7868_" d="M266.995,344.552a.908.908,0,0,1-.384.382c.348,1.91,1.5,9.214,2.688,17.142,3.1-10.621,6.922-22.173,8.646-24.714,2.7-3.985,2.753-6.091,2.653-7.077-1.248,5.292-10.093,15.47-9.8,12.406a4.895,4.895,0,0,0-1.62-3.371C269.056,341.128,267.968,342.373,266.995,344.552Z" transform="translate(-220.798 -273.764)" fill="#93afca"/>
      <path id="XMLID_7867_" d="M318.031,372l.076.057.023-.064Z" transform="translate(-259.74 -305.348)" fill="#93afca"/>
      <path id="XMLID_7866_" d="M248.764,375.864c-1.185-7.928-2.339-15.233-2.688-17.142a.907.907,0,0,0,.384-.381c.973-2.179,2.061-3.424,2.179-5.231-1.745-1.952-4.294-3.724-4.553-4.618-.259.894-2.808,2.666-4.553,4.618.118,1.807,1.206,3.052,2.179,5.231a.907.907,0,0,0,.383.381c-.339,1.86-1.444,8.845-2.6,16.539,1.2,3.743,2.39,7.572,3.493,11.218.237,0,.471.018.709.018.72,0,1.432-.029,2.146-.054C246.64,383.337,247.655,379.663,248.764,375.864Z" transform="translate(-200.262 -287.552)" fill="#b62739"/>
      <path id="XMLID_7865_" d="M193.482,307.393c-.22.215-.412.4-.577.568a2.589,2.589,0,0,0-.4,1.637,3.688,3.688,0,0,1-.048.455c1.123,5.251,10.121,15.632,9.83,12.541a4.895,4.895,0,0,1,1.62-3.371c1.745-1.952,4.294-3.724,4.553-4.618.259.894,2.808,2.666,4.553,4.618a4.895,4.895,0,0,1,1.62,3.371c-.289,3.063,8.556-7.114,9.8-12.406-.028-.281-.068-.475-.062-.59a2.525,2.525,0,0,0-.494-1.769c-.1-.1-.22-.217-.342-.337a1.683,1.683,0,0,0-.286-.177s.038-.006.1-.009a15.9,15.9,0,0,1-2.651-3.351c-.175-.3-.422-.266-.835.055-1.261.978-4.088,4.675-11.291,10.191a.116.116,0,1,1-.22,0c-7.131-5.46-9.972-9.137-11.252-10.159-.437-.349-.694-.392-.875-.086a15.9,15.9,0,0,1-2.653,3.353c.034,0,.057.007.057.007A1.515,1.515,0,0,0,193.482,307.393Z" transform="translate(-164.635 -253.667)" fill="#b9d4f3"/>
      <path id="XMLID_7864_" d="M194.595,196.6a14.318,14.318,0,0,0,2.7,1.426,12.582,12.582,0,0,0,2.625.715,13,13,0,0,0,3.325.1,12.725,12.725,0,0,0,2.612-.542,13.426,13.426,0,0,0,2.675-1.207,18.033,18.033,0,0,0,2.778-2.032c.153-.135.3-.276.45-.415.122-.113.246-.222.366-.337,3.71-3.582,3.678-12.633,4.574-11.993,2.047,1.375,3.358-2.719,3.614-5.149.22-2.084-.566-3.123-1.439-2.734a2.372,2.372,0,0,1-.879,1.12s-1.28,5.291-1.829,5.125-.31-4.941.549-10.53c.914-5.952-6.4-3.358-11.52-3.523s-16.965-1.164-17.879,1.647.874,11.3.143,11.631-1.646-3.854-2.377-4.681a2.7,2.7,0,0,1-.364-.877c-.736-.04-1.319.99-1.126,2.822.256,2.431,1.567,6.525,3.614,5.149.894-.639.864,8.39,4.561,11.981l.013.013A20.227,20.227,0,0,0,194.595,196.6Z" transform="translate(-157.895 -149.487)" fill="#ffe6d3"/>
      <path id="XMLID_7863_" d="M180.715,127.752c.731-.331-1.057-8.82-.143-11.631s12.759-1.813,17.879-1.647,12.434-2.429,11.52,3.523c-.859,5.589-1.1,10.365-.549,10.53s1.829-5.125,1.829-5.125a2.372,2.372,0,0,0,.879-1.12c1.441-3.2.766-11.345.766-12.768,0-1.653-2.56-4.464-3.657-4.464s-.183-4.629-7.68-6.613-14.08-.992-17.737.827-6.4,4.96-8.046,5.456.549,1.653-.731,2.811.914,2.645,1.28,4.96c.307,1.942,1,7.48,1.647,9.7a2.705,2.705,0,0,0,.364.877C179.069,123.9,179.983,128.083,180.715,127.752Z" transform="translate(-151.15 -97.346)" fill="#554c44"/>
      <path id="XMLID_7862_" d="M293.021,332.725c1.8,3.218,1.9,5.191,3.167,6.137,1.2.9-8.737,1.6-9.814,1.675l-.023.064,6.969,5.26s-6.06,8.251-9.305,13.081c-1.141,1.7-4,6.6-5.592,9.394-.451.79-1.336,2.45-2.322,4.306a60.132,60.132,0,0,0,26.066-8.2c.982-11.895,3.747-27.951,9.118-27.027-2.136-.9-8.089-2.093-12.122-3.731-3.486-1.416-6.257-3.2-7.979-3.226A9.254,9.254,0,0,1,293.021,332.725Z" transform="translate(-227.984 -273.897)" fill="#121112"/>
      <path id="XMLID_7861_" d="M278.979,318.588a1.887,1.887,0,0,1,.342.337,2.526,2.526,0,0,1,.494,1.769c-.006.115.034.31.062.59.1.985.051,3.091-2.653,7.077-1.724,2.54-5.545,14.093-8.646,24.714-1.109,3.8-2.124,7.473-2.919,10.578.849-.029,1.693-.079,2.533-.143.987-1.855,1.872-3.516,2.322-4.306,1.595-2.8,4.451-7.7,5.592-9.394,3.245-4.83,9.305-13.081,9.305-13.081l-6.969-5.26-.076-.058.1-.007c1.076-.074,11.016-.78,9.814-1.675-1.271-.947-1.369-2.92-3.167-6.137a9.252,9.252,0,0,0-1.838-2.264c-.9-.83-1.783-1.411-2.239-1.8-1.263-1.072-2.007-1.14-2.249-1.127-.057,0-.1.009-.1.009A1.684,1.684,0,0,1,278.979,318.588Z" transform="translate(-220.077 -264.762)"/>
      <path id="XMLID_7860_" d="M107.522,365.191a60.142,60.142,0,0,0,24.871,7.3c-.968-2.189-1.714-3.827-2-4.337-1.595-2.8-4.451-7.7-5.592-9.394-3.245-4.83-9.306-13.081-9.306-13.081l7.045-5.318s-11.185-.736-9.914-1.682,1.369-2.92,3.167-6.137a9.321,9.321,0,0,1,1.9-2.321c-1.709.5-4.059,1.886-6.88,3.032-4.449,1.808-11.231,3.067-12.651,4C103.788,335.92,106.6,353.1,107.522,365.191Z" transform="translate(-93.22 -273.717)" fill="#1d1b1e"/>
      <path id="XMLID_7859_" d="M160.616,323.589c-1.8,3.218-1.9,5.191-3.167,6.137s9.914,1.682,9.914,1.682l-7.046,5.318s6.06,8.251,9.306,13.081c1.141,1.7,4,6.6,5.592,9.394.291.51,1.036,2.148,2,4.337,1.177.082,2.361.135,3.555.148-1.1-3.646-2.295-7.474-3.493-11.217-3.66-11.432-7.377-22.05-8.775-24.11-2.83-4.171-2.752-6.289-2.639-7.212a3.691,3.691,0,0,0,.048-.455,2.589,2.589,0,0,1,.4-1.637,1.921,1.921,0,0,1,.577-.568,1.592,1.592,0,0,1,.145-.078s-.023,0-.057-.007c-.2-.02-.957,0-2.287,1.125-.445.378-1.3.942-2.176,1.74A9.323,9.323,0,0,0,160.616,323.589Z" transform="translate(-138.046 -264.761)"/>
      <path id="XMLID_7858_" d="M92.1,386.916c-.922-12.091-3.734-29.27-9.362-27.933a3.33,3.33,0,0,0-.706.258c-1.292.639-2.6,7.369-4.233,16.744A60.716,60.716,0,0,0,92.1,386.916Z" transform="translate(-77.802 -295.442)"/>
      <path id="XMLID_7857_" d="M383.524,386.041a60.777,60.777,0,0,0,13.99-11.367c-1.525-8.659-2.766-14.775-3.995-15.382a3.133,3.133,0,0,0-.877-.277C387.271,358.09,384.506,374.146,383.524,386.041Z" transform="translate(-309.342 -295.493)"/>
    </g>
  </g>
</svg>
