<svg xmlns="http://www.w3.org/2000/svg" width="51.772" height="50.46" viewBox="0 0 51.772 50.46">
  <path id="Path_42" data-name="Path 42" d="M22.012,41.03l2.565-2.565a2.762,2.762,0,0,1,3.917,0L50.957,60.916a2.762,2.762,0,0,1,0,3.917L28.494,87.3a2.762,2.762,0,0,1-3.917,0L22.012,84.73a2.776,2.776,0,0,1,.046-3.963L35.982,67.5H2.773A2.767,2.767,0,0,1,0,64.729v-3.7a2.767,2.767,0,0,1,2.773-2.773H35.982L22.058,44.993A2.756,2.756,0,0,1,22.012,41.03Z" transform="translate(0 -37.65)" stroke="#000" stroke-width="0"/>
</svg>
