<svg xmlns="http://www.w3.org/2000/svg" width="38.148" height="36.429" viewBox="0 0 38.148 36.429">
  <path id="Path_31" data-name="Path 31" d="M125.436,81.127,114,79.465,108.888,69.1a1.442,1.442,0,0,0-2.585,0l-5.112,10.364L89.755,81.127a1.44,1.44,0,0,0-.8,2.459l8.274,8.067-1.955,11.391a1.439,1.439,0,0,0,2.09,1.518L107.6,99.185l10.229,5.378a1.441,1.441,0,0,0,2.09-1.518L117.96,91.654l8.274-8.067a1.443,1.443,0,0,0-.8-2.459Z" transform="translate(-88.522 -68.3)" fill="#fd0" stroke="#000" stroke-width="0"/>
</svg>
