<svg xmlns="http://www.w3.org/2000/svg" width="18.356" height="18.355" viewBox="0 0 18.356 18.355">
  <path id="Path_1" data-name="Path 1" d="M2.163.586A2,2,0,0,1,5.157.773L7.216,3.419a2,2,0,0,1,.361,1.714L6.95,7.645a.778.778,0,0,0,.2.738L9.973,11.2a.778.778,0,0,0,.739.2l2.511-.628a2,2,0,0,1,1.714.361L17.582,13.2a2,2,0,0,1,.187,3l-1.186,1.186a3.186,3.186,0,0,1-3.3.805,21.377,21.377,0,0,1-8.042-5.071A21.377,21.377,0,0,1,.17,5.073a3.189,3.189,0,0,1,.806-3.3Z" transform="translate(0 -0.001)" fill="#f5f5f5" stroke="#000" stroke-width="0" fill-rule="evenodd"/>
</svg>
