<svg xmlns="http://www.w3.org/2000/svg" width="206.135" height="192.376" viewBox="0 0 206.135 192.376">
  <path id="Path_39" data-name="Path 39" d="M137.616,9.893a6.872,6.872,0,1,0-13.136-4.04L69.517,184.483a6.872,6.872,0,0,0,13.136,4.04L137.616,9.893ZM60.338,44.231a6.87,6.87,0,0,1,0,9.728L17.1,97.188l43.242,43.228a6.879,6.879,0,0,1-9.728,9.728L2.518,102.052a6.87,6.87,0,0,1,0-9.728L50.61,44.231a6.87,6.87,0,0,1,9.728,0Zm86.457,0a6.87,6.87,0,0,0,0,9.728l43.242,43.228L146.8,140.416a6.879,6.879,0,0,0,9.728,9.728l48.092-48.093a6.87,6.87,0,0,0,0-9.728L156.523,44.231a6.87,6.87,0,0,0-9.728,0Z" transform="translate(-0.499 -1)" fill="#6b98ff" stroke="#6b98ff" stroke-width="0"/>
</svg>
