<svg id="Group_1" data-name="Group 1" xmlns="http://www.w3.org/2000/svg" width="220.5" height="220.5" viewBox="0 0 220.5 220.5">
  <path id="Path_37" data-name="Path 37" d="M0,0H220.5V220.5H0Z" fill="none" stroke="#6b98ff" stroke-width="0"/>
  <path id="Path_38" data-name="Path 38" d="M124.643,81.177l14.424-14.424L104.614,32.3,90.189,46.723,52.153,8.779a18.41,18.41,0,0,0-26,0L8.7,26.235a18.41,18.41,0,0,0,0,26L46.641,90.18,3,133.913v34.453H37.453l43.733-43.732,37.944,37.944c8.728,8.728,20.488,5.512,26,0l17.456-17.456a18.41,18.41,0,0,0,0-26L124.643,81.177ZM59.779,77.134,21.743,39.19,39.107,21.733,50.775,33.4,39.934,44.335,52.888,57.289,63.821,46.356,77.143,59.678,59.779,77.134Zm72.4,72.489L94.232,111.679l17.456-17.456,13.322,13.322-10.933,10.933,12.954,12.954L137.964,120.5l11.668,11.668ZM165.711,40.108a9.151,9.151,0,0,0,0-12.954l-21.5-21.5c-4.318-4.318-10.29-2.664-12.954,0L114.444,22.468,148.9,56.922l16.813-16.813Z" transform="translate(24.563 24.572)" fill="#6b98ff" stroke="#6b98ff" stroke-width="0"/>
</svg>
