<svg id="Group_2" data-name="Group 2" xmlns="http://www.w3.org/2000/svg" width="219" height="219" viewBox="0 0 219 219">
  <path id="Path_40" data-name="Path 40" d="M0,0H219V219H0Z" fill="none" stroke="#000" stroke-width="0"/>
  <path id="Path_41" data-name="Path 41" d="M183.5,64.866a18.25,18.25,0,0,1,18.25,18.25v36.5a18.25,18.25,0,0,1-18.25,18.25h-9.691a73.009,73.009,0,0,1-72.434,63.875v-18.25a54.75,54.75,0,0,0,54.75-54.75V73.991a54.75,54.75,0,0,0-109.5,0v63.875H19.25A18.25,18.25,0,0,1,1,119.616v-36.5a18.25,18.25,0,0,1,18.25-18.25h9.691a73.009,73.009,0,0,1,144.868,0ZM62.685,135.9l9.672-15.476a54.8,54.8,0,0,0,58.035,0l9.673,15.476a73.052,73.052,0,0,1-77.38,0Z" transform="translate(8.125 8.134)" fill="#6b98ff" stroke="#000" stroke-width="0"/>
</svg>
