<svg xmlns="http://www.w3.org/2000/svg" width="740.468" height="404.581" viewBox="0 0 740.468 404.581">
  <g id="programmer_graphic" transform="translate(-58.787 -149.661)">
    <path id="Path_5" data-name="Path 5" d="M265.377,584.222c7.931,14.637,18.119,29.789,26.5,41.615l685.4,2.748a293.545,293.545,0,0,0,28.564-29.407Z" transform="translate(-206.59 -184.067)" fill="#3f3d56"/>
    <path id="Path_6" data-name="Path 6" d="M702.02,505.527v87.059a4.187,4.187,0,0,0,4.184,4.184H835.215a4.188,4.188,0,0,0,4.184-4.184V505.527a4.19,4.19,0,0,0-4.184-4.18H706.2A4.189,4.189,0,0,0,702.02,505.527Z" transform="translate(-198.76 -185.597)" fill="#3f3d56"/>
    <path id="Path_7" data-name="Path 7" d="M705,506.564v84.9a2.24,2.24,0,0,0,2.236,2.236H834.094a2.24,2.24,0,0,0,2.236-2.236v-84.9a2.241,2.241,0,0,0-2.236-2.241H707.236A2.241,2.241,0,0,0,705,506.564Z" transform="translate(-198.713 -185.55)" fill="#6b98ff"/>
    <path id="Path_8" data-name="Path 8" d="M699.373,608.1a2.51,2.51,0,0,0,1.974.945H839.488a2.542,2.542,0,0,0,2.485-3.063L839.828,595.8a2.547,2.547,0,0,0-1.583-1.846,2.469,2.469,0,0,0-.9-.17H703.483a2.464,2.464,0,0,0-.9.17A2.547,2.547,0,0,0,701,595.8l-2.144,10.186a2.539,2.539,0,0,0,.519,2.119Z" transform="translate(-198.811 -184.136)" fill="#2f2e41"/>
    <rect id="Rectangle_7" data-name="Rectangle 7" width="4.255" height="2.553" rx="0.488" transform="translate(637.551 414.034) rotate(180)" fill="#3f3d56"/>
    <rect id="Rectangle_8" data-name="Rectangle 8" width="4.255" height="2.553" rx="0.488" transform="translate(629.042 414.034) rotate(180)" fill="#3f3d56"/>
    <rect id="Rectangle_9" data-name="Rectangle 9" width="4.255" height="2.553" rx="0.488" transform="translate(620.532 414.034) rotate(180)" fill="#3f3d56"/>
    <rect id="Rectangle_10" data-name="Rectangle 10" width="4.255" height="2.553" rx="0.488" transform="translate(612.023 414.034) rotate(180)" fill="#3f3d56"/>
    <rect id="Rectangle_11" data-name="Rectangle 11" width="4.255" height="2.553" rx="0.488" transform="translate(603.513 414.034) rotate(180)" fill="#3f3d56"/>
    <rect id="Rectangle_12" data-name="Rectangle 12" width="4.255" height="2.553" rx="0.488" transform="translate(595.004 414.034) rotate(180)" fill="#3f3d56"/>
    <rect id="Rectangle_13" data-name="Rectangle 13" width="4.255" height="2.553" rx="0.488" transform="translate(586.495 414.034) rotate(180)" fill="#3f3d56"/>
    <rect id="Rectangle_14" data-name="Rectangle 14" width="4.255" height="2.553" rx="0.488" transform="translate(577.985 414.034) rotate(180)" fill="#3f3d56"/>
    <rect id="Rectangle_15" data-name="Rectangle 15" width="4.255" height="2.553" rx="0.488" transform="translate(569.476 414.034) rotate(180)" fill="#3f3d56"/>
    <rect id="Rectangle_16" data-name="Rectangle 16" width="4.255" height="2.553" rx="0.488" transform="translate(560.967 414.034) rotate(180)" fill="#3f3d56"/>
    <rect id="Rectangle_17" data-name="Rectangle 17" width="4.255" height="2.553" rx="0.488" transform="translate(552.457 414.034) rotate(180)" fill="#3f3d56"/>
    <rect id="Rectangle_18" data-name="Rectangle 18" width="4.255" height="2.553" rx="0.488" transform="translate(543.948 414.034) rotate(180)" fill="#3f3d56"/>
    <rect id="Rectangle_19" data-name="Rectangle 19" width="4.255" height="2.553" rx="0.488" transform="translate(535.439 414.034) rotate(180)" fill="#3f3d56"/>
    <rect id="Rectangle_20" data-name="Rectangle 20" width="4.255" height="2.553" rx="0.488" transform="translate(526.929 414.034) rotate(180)" fill="#3f3d56"/>
    <rect id="Rectangle_21" data-name="Rectangle 21" width="4.255" height="2.553" rx="0.488" transform="translate(518.42 414.034) rotate(180)" fill="#3f3d56"/>
    <rect id="Rectangle_22" data-name="Rectangle 22" width="4.255" height="2.553" rx="0.488" transform="translate(509.911 414.034) rotate(180)" fill="#3f3d56"/>
    <rect id="Rectangle_23" data-name="Rectangle 23" width="4.255" height="2.553" rx="0.488" transform="translate(637.651 418.288) rotate(180)" fill="#3f3d56"/>
    <rect id="Rectangle_24" data-name="Rectangle 24" width="4.255" height="2.553" rx="0.488" transform="translate(629.142 418.288) rotate(180)" fill="#3f3d56"/>
    <rect id="Rectangle_25" data-name="Rectangle 25" width="4.255" height="2.553" rx="0.488" transform="translate(620.633 418.288) rotate(180)" fill="#3f3d56"/>
    <rect id="Rectangle_26" data-name="Rectangle 26" width="4.255" height="2.553" rx="0.488" transform="translate(612.123 418.288) rotate(180)" fill="#3f3d56"/>
    <rect id="Rectangle_27" data-name="Rectangle 27" width="4.255" height="2.553" rx="0.488" transform="translate(603.614 418.288) rotate(180)" fill="#3f3d56"/>
    <rect id="Rectangle_28" data-name="Rectangle 28" width="4.255" height="2.553" rx="0.488" transform="translate(595.105 418.288) rotate(180)" fill="#3f3d56"/>
    <rect id="Rectangle_29" data-name="Rectangle 29" width="4.255" height="2.553" rx="0.488" transform="translate(586.595 418.288) rotate(180)" fill="#3f3d56"/>
    <rect id="Rectangle_30" data-name="Rectangle 30" width="4.255" height="2.553" rx="0.488" transform="translate(578.086 418.288) rotate(180)" fill="#3f3d56"/>
    <rect id="Rectangle_31" data-name="Rectangle 31" width="4.255" height="2.553" rx="0.488" transform="translate(569.577 418.288) rotate(180)" fill="#3f3d56"/>
    <rect id="Rectangle_32" data-name="Rectangle 32" width="4.255" height="2.553" rx="0.488" transform="translate(561.067 418.288) rotate(180)" fill="#3f3d56"/>
    <rect id="Rectangle_33" data-name="Rectangle 33" width="4.255" height="2.553" rx="0.488" transform="translate(552.558 418.288) rotate(180)" fill="#3f3d56"/>
    <rect id="Rectangle_34" data-name="Rectangle 34" width="4.255" height="2.553" rx="0.488" transform="translate(544.049 418.288) rotate(180)" fill="#3f3d56"/>
    <rect id="Rectangle_35" data-name="Rectangle 35" width="4.255" height="2.553" rx="0.488" transform="translate(535.539 418.288) rotate(180)" fill="#3f3d56"/>
    <rect id="Rectangle_36" data-name="Rectangle 36" width="4.255" height="2.553" rx="0.488" transform="translate(527.03 418.288) rotate(180)" fill="#3f3d56"/>
    <rect id="Rectangle_37" data-name="Rectangle 37" width="4.255" height="2.553" rx="0.488" transform="translate(518.521 418.288) rotate(180)" fill="#3f3d56"/>
    <rect id="Rectangle_38" data-name="Rectangle 38" width="4.255" height="2.553" rx="0.488" transform="translate(510.011 418.288) rotate(180)" fill="#3f3d56"/>
    <rect id="Rectangle_39" data-name="Rectangle 39" width="34.037" height="2.553" rx="0.488" transform="translate(596.807 423.394) rotate(180)" fill="#3f3d56"/>
    <rect id="Rectangle_40" data-name="Rectangle 40" width="6.06" height="3.172" rx="1.561" transform="translate(523.78 337.347)" fill="#fff"/>
    <rect id="Rectangle_41" data-name="Rectangle 41" width="6.06" height="3.172" rx="1.561" transform="translate(556.817 337.347)" fill="#fff"/>
    <rect id="Rectangle_42" data-name="Rectangle 42" width="6.06" height="3.172" rx="1.561" transform="translate(566.177 337.347)" fill="#fff"/>
    <rect id="Rectangle_43" data-name="Rectangle 43" width="21.125" height="3.172" rx="1.561" transform="translate(532.766 337.083)" fill="#fff"/>
    <rect id="Rectangle_44" data-name="Rectangle 44" width="21.125" height="3.172" rx="1.561" transform="translate(576.815 337.083)" fill="#fff"/>
    <rect id="Rectangle_45" data-name="Rectangle 45" width="6.06" height="3.172" rx="1.561" transform="translate(532.59 344.505)" fill="#fff"/>
    <rect id="Rectangle_46" data-name="Rectangle 46" width="6.06" height="3.172" rx="1.561" transform="translate(565.627 344.505)" fill="#fff"/>
    <rect id="Rectangle_47" data-name="Rectangle 47" width="6.06" height="3.172" rx="1.561" transform="translate(574.988 344.505)" fill="#fff"/>
    <rect id="Rectangle_48" data-name="Rectangle 48" width="21.125" height="3.172" rx="1.561" transform="translate(541.576 344.24)" fill="#fff"/>
    <rect id="Rectangle_49" data-name="Rectangle 49" width="21.125" height="3.172" rx="1.561" transform="translate(585.625 344.24)" fill="#fff"/>
    <rect id="Rectangle_50" data-name="Rectangle 50" width="6.06" height="3.172" rx="1.561" transform="translate(541.4 351.663)" fill="#fff"/>
    <rect id="Rectangle_51" data-name="Rectangle 51" width="6.06" height="3.172" rx="1.561" transform="translate(574.437 351.663)" fill="#fff"/>
    <rect id="Rectangle_52" data-name="Rectangle 52" width="6.06" height="3.172" rx="1.561" transform="translate(583.798 351.663)" fill="#fff"/>
    <rect id="Rectangle_53" data-name="Rectangle 53" width="21.125" height="3.172" rx="1.561" transform="translate(550.386 351.399)" fill="#fff"/>
    <rect id="Rectangle_54" data-name="Rectangle 54" width="21.125" height="3.172" rx="1.561" transform="translate(594.435 351.399)" fill="#fff"/>
    <rect id="Rectangle_55" data-name="Rectangle 55" width="6.06" height="3.172" rx="1.561" transform="translate(550.209 358.821)" fill="#fff"/>
    <rect id="Rectangle_56" data-name="Rectangle 56" width="6.06" height="3.172" rx="1.561" transform="translate(583.246 358.821)" fill="#fff"/>
    <rect id="Rectangle_57" data-name="Rectangle 57" width="6.06" height="3.172" rx="1.561" transform="translate(592.607 358.821)" fill="#fff"/>
    <rect id="Rectangle_58" data-name="Rectangle 58" width="21.125" height="3.172" rx="1.561" transform="translate(559.196 358.557)" fill="#fff"/>
    <rect id="Rectangle_59" data-name="Rectangle 59" width="6.06" height="3.172" rx="1.561" transform="translate(556.817 387.285)" fill="#fff"/>
    <rect id="Rectangle_60" data-name="Rectangle 60" width="6.06" height="3.172" rx="1.561" transform="translate(566.177 387.285)" fill="#fff"/>
    <rect id="Rectangle_61" data-name="Rectangle 61" width="21.125" height="3.172" rx="1.561" transform="translate(576.815 387.549)" fill="#fff"/>
    <rect id="Rectangle_62" data-name="Rectangle 62" width="6.06" height="3.172" rx="1.561" transform="translate(523.78 387.285)" fill="#fff"/>
    <rect id="Rectangle_63" data-name="Rectangle 63" width="21.125" height="3.172" rx="1.561" transform="translate(532.766 387.549)" fill="#fff"/>
    <rect id="Rectangle_64" data-name="Rectangle 64" width="6.06" height="3.172" rx="1.561" transform="translate(532.59 380.127)" fill="#fff"/>
    <rect id="Rectangle_65" data-name="Rectangle 65" width="6.06" height="3.172" rx="1.561" transform="translate(565.627 380.127)" fill="#fff"/>
    <rect id="Rectangle_66" data-name="Rectangle 66" width="6.06" height="3.172" rx="1.561" transform="translate(574.988 380.127)" fill="#fff"/>
    <rect id="Rectangle_67" data-name="Rectangle 67" width="21.125" height="3.172" rx="1.561" transform="translate(541.576 380.391)" fill="#fff"/>
    <rect id="Rectangle_68" data-name="Rectangle 68" width="6.06" height="3.172" rx="1.561" transform="translate(541.4 372.968)" fill="#fff"/>
    <rect id="Rectangle_69" data-name="Rectangle 69" width="6.06" height="3.172" rx="1.561" transform="translate(574.437 372.968)" fill="#fff"/>
    <rect id="Rectangle_70" data-name="Rectangle 70" width="6.06" height="3.172" rx="1.561" transform="translate(583.798 372.968)" fill="#fff"/>
    <rect id="Rectangle_71" data-name="Rectangle 71" width="21.125" height="3.172" rx="1.561" transform="translate(550.386 373.232)" fill="#fff"/>
    <rect id="Rectangle_72" data-name="Rectangle 72" width="6.06" height="3.172" rx="1.561" transform="translate(550.209 365.811)" fill="#fff"/>
    <rect id="Rectangle_73" data-name="Rectangle 73" width="6.06" height="3.172" rx="1.561" transform="translate(583.246 365.811)" fill="#fff"/>
    <rect id="Rectangle_74" data-name="Rectangle 74" width="6.06" height="3.172" rx="1.561" transform="translate(592.607 365.811)" fill="#fff"/>
    <rect id="Rectangle_75" data-name="Rectangle 75" width="21.125" height="3.172" rx="1.561" transform="translate(559.196 366.075)" fill="#fff"/>
    <path id="Path_9" data-name="Path 9" d="M711.718,655.617l-13.56-21.435,42.564-33.93,17.568-19.464a19.464,19.464,0,0,1,32.93,6.936h0a19.464,19.464,0,0,1-11.753,24.37l-27.781,10.235Z" transform="translate(-198.821 -184.443)" fill="#ffb6b6"/>
    <path id="Path_10" data-name="Path 10" d="M398.28,501.407V605.587h72.985V501.407a3.5,3.5,0,0,0-2.468-3.352,3.223,3.223,0,0,0-1.046-.162H401.8A3.518,3.518,0,0,0,398.28,501.407Zm28.483,35.8a7.791,7.791,0,1,1,15.583,0v12.088a7.791,7.791,0,1,1-15.583,0Z" transform="translate(-203.561 -185.652)" fill="#2f2e41"/>
    <path id="Path_11" data-name="Path 11" d="M398.06,600.632v10.046a1.977,1.977,0,0,0,1.961,1.971h69.511a1.971,1.971,0,0,0,1.961-1.971V600.632Z" transform="translate(-203.564 -184.028)" fill="#3f3d56"/>
    <path id="Path_12" data-name="Path 12" d="M285.25,346.974V537.193a9.149,9.149,0,0,0,9.142,9.142H576.278a9.15,9.15,0,0,0,9.142-9.142V346.974a9.154,9.154,0,0,0-9.142-9.132H294.392a9.154,9.154,0,0,0-9.142,9.132Z" transform="translate(-205.347 -188.181)" fill="#3f3d56"/>
    <path id="Path_13" data-name="Path 13" d="M291.76,349.238V534.744a4.895,4.895,0,0,0,4.886,4.886H573.828a4.894,4.894,0,0,0,4.886-4.886V349.238a4.9,4.9,0,0,0-4.886-4.9H296.646a4.9,4.9,0,0,0-4.886,4.9Z" transform="translate(-205.244 -188.078)" fill="#fff"/>
    <path id="Path_14" data-name="Path 14" d="M342.411,612.058a3,3,0,0,0,2.357,1.128H509.673a3.035,3.035,0,0,0,2.966-3.657l-2.56-12.159a3.04,3.04,0,0,0-1.889-2.2,2.939,2.939,0,0,0-1.077-.2h-159.8a2.934,2.934,0,0,0-1.077.2,3.04,3.04,0,0,0-1.889,2.2l-2.56,12.159A3.033,3.033,0,0,0,342.411,612.058Z" transform="translate(-204.454 -184.118)" fill="#2f2e41"/>
    <path id="Path_15" data-name="Path 15" d="M564.636,369.531H305.277a1.032,1.032,0,1,1,0-2.063H564.636a1.032,1.032,0,1,1,0,2.063Z" transform="translate(-205.047 -187.713)" fill="#3f3d56"/>
    <ellipse id="Ellipse_6" data-name="Ellipse 6" cx="6.044" cy="6.179" rx="6.044" ry="6.179" transform="translate(111.841 162.131)" fill="#3f3d56"/>
    <ellipse id="Ellipse_7" data-name="Ellipse 7" cx="6.044" cy="6.179" rx="6.044" ry="6.179" transform="translate(132.721 162.131)" fill="#3f3d56"/>
    <ellipse id="Ellipse_8" data-name="Ellipse 8" cx="6.044" cy="6.179" rx="6.044" ry="6.179" transform="translate(153.602 162.131)" fill="#3f3d56"/>
    <path id="Path_16" data-name="Path 16" d="M548.454,351.622H533.623a1.123,1.123,0,0,0,0,2.245h14.831a1.123,1.123,0,0,0,0-2.245Z" transform="translate(-201.439 -187.963)" fill="#3f3d56"/>
    <path id="Path_17" data-name="Path 17" d="M548.454,355.772H533.623a1.123,1.123,0,1,0,0,2.245h14.831a1.122,1.122,0,1,0,0-2.245Z" transform="translate(-201.439 -187.898)" fill="#3f3d56"/>
    <path id="Path_18" data-name="Path 18" d="M548.454,359.922H533.623a1.123,1.123,0,0,0,0,2.245h14.831a1.123,1.123,0,0,0,0-2.245Z" transform="translate(-201.439 -187.832)" fill="#3f3d56"/>
    <path id="Path_19" data-name="Path 19" d="M900.3,605.943a6.518,6.518,0,0,0,6.281,4.4l26.91-.692a6.428,6.428,0,0,0,6.075-4.731l3.808-40.72a9.95,9.95,0,0,0,4.3.884,9.814,9.814,0,1,0-.493-19.622,8.308,8.308,0,0,0-1.764.183,6.651,6.651,0,0,0-4.951-2.136l-41.395,1.069a5.943,5.943,0,0,0-1.021.127,6.466,6.466,0,0,0-4.95,8.4Zm43.856-44.51,2.71-9.7a6.608,6.608,0,0,0,.021-3.428c.131,0,.248-.063.379-.063a7.02,7.02,0,0,1,.329,14.036,6.607,6.607,0,0,1-3.439-.84Z" transform="translate(-195.746 -184.931)" fill="#2f2e41"/>
    <path id="Path_20" data-name="Path 20" d="M897.978,544.7c.882,5.043,10.8,8.587,22.719,7.971,10.963-.505,19.928-4.355,21.57-8.917a6.125,6.125,0,0,0-1.874-.25L899,544.578A5.951,5.951,0,0,0,897.978,544.7Z" transform="translate(-195.664 -184.931)" fill="#3f3d56"/>
    <path id="Path_21" data-name="Path 21" d="M922.507,583.081a.5.5,0,0,0,.153-.067l5.844-3.825a.507.507,0,0,0,0-.849l-6.074-3.978a.508.508,0,0,0-.557.849l5.426,3.553-5.2,3.4a.508.508,0,0,0,.4.917Z" transform="translate(-195.289 -184.444)" fill="#6b98ff"/>
    <path id="Path_22" data-name="Path 22" d="M913.512,583.5a.508.508,0,0,0,.128-.933l-5.387-3.088,5.207-3.867a.508.508,0,0,0-.606-.815l-5.829,4.33a.507.507,0,0,0,.05.848l6.06,3.474A.507.507,0,0,0,913.512,583.5Z" transform="translate(-195.524 -184.438)" fill="#6b98ff"/>
    <path id="Path_23" data-name="Path 23" d="M922.061,586.472a.492.492,0,0,0,.139-.059.507.507,0,0,0,.17-.7l-8.284-13.62a.508.508,0,1,0-.868.529l8.284,13.62A.508.508,0,0,0,922.061,586.472Z" transform="translate(-195.424 -184.483)" fill="#6b98ff"/>
    <rect id="Rectangle_77" data-name="Rectangle 77" width="103.852" height="11.017" rx="3.264" transform="translate(99.199 233.827)" fill="#e6e6e6"/>
    <rect id="Rectangle_78" data-name="Rectangle 78" width="103.852" height="11.017" rx="3.264" transform="translate(99.199 253.908)" fill="#e6e6e6"/>
    <path id="Path_24" data-name="Path 24" d="M497.3,541.6l.22.7.012.023,6.628,20.151,7.625,23.222,14.346,43.64.139,6.779v.023l1.066,54.533-2.955,7.393,3.326,12.121s-1.53-18.322-9.734-7.8c-4.647,5.979-10.082,12.1-14.543,17.834q9.751,3.946,19.816,7.138c1.448.464,2.909.9,4.369,1.344l.939.278a271.075,271.075,0,0,0,68.415,11c1.205.035,2.387.058,3.534.081.406.012.8.023,1.194.023,1.3.012,2.584.023,3.882.023q3.928,0,7.822-.116a271.054,271.054,0,0,0,56.978-7.706c-.127-7.706-.475-16.71-.973-26.328-.232-4.716-5.435-9.827-5.748-14.763-.22-3.708,4.45-7.2,4.206-10.962-1.576-23.187-3.546-14.286-5.006-30.707q-.226-2.416-.417-4.624c-.939-10.545-1.587-17.139-1.587-17.139l6.234-39.295,9.792-61.694-.753-1.24-.846-.417-51.647-25.563-2.8-7.184a11.152,11.152,0,0,0-10.3-7.057l-34.022-.139a11.1,11.1,0,0,0-9.05,4.6l-9.212,12.758Z" transform="translate(-201.996 -185.853)" fill="#3f3d56"/>
    <path id="Path_25" data-name="Path 25" d="M534.531,619l-7.707,16.489-5.261,11.264-9.05,47.383-4.531,4.809L504.1,681.923l-40.63,9.021c-1.333-7.4-.357.25-1.18-7.873.232-.232.475-.464.719-.7.649-.6,1.193-1.17,1.182-1.715-.464-28.02.927-75.7,12.538-104.593a61.007,61.007,0,0,1,7.138-13.315c.232-.313.452-.626.672-.939,5.354-7.5,8.737-14.879,13.535-20.128v-.012a.547.547,0,0,0,.081-.081.157.157,0,0,0,.046-.035l32.956-17.475,1.414,39.724,1.008,28.553Z" transform="translate(-202.549 -185.238)" fill="#3f3d56"/>
    <path id="Path_26" data-name="Path 26" d="M650.391,623.678l9.626,20.6,3.36,7.172,9.048,47.379,4.516,4.8,3.891-17.02,1.828-.375,32.971-6.829,9.61,30.521a18.268,18.268,0,0,0-3.313-22.861c-.656-.594-1.2-1.172-1.188-1.719.547-32.956-1.469-93.133-19.673-117.9-5.782-7.86-9.251-15.689-14.3-21.158-.016-.016-.016-.031-.031-.031l-12.282-20.11-.75-1.234-.844-.422Z" transform="translate(-199.576 -185.231)" fill="#3f3d56"/>
    <circle id="Ellipse_5" data-name="Ellipse 5" cx="45.262" cy="45.262" r="45.262" transform="translate(347.241 199.102)" fill="#ffb6b6"/>
    <path id="Path_27" data-name="Path 27" d="M654.956,400.495a3.818,3.818,0,0,0-2.733-1.209l.681-1.89a3.583,3.583,0,0,0-4.023-4.774l-2.479.478.234-1.656a3.59,3.59,0,0,0-4.8-3.88,3.826,3.826,0,0,1-3.291-.234,3.907,3.907,0,0,1-1.95-2.651l-.863-4.165-.091-.224c-4.205-7.009-12.291-12.108-22.185-13.977-8.807-1.676-17.838-.823-26.543-.02-3.454.325-7.354.691-10.605,2.682-2.763,1.707-5.1,5.12-4.622,8.563-8.583-2.631-17.787,2.621-22.348,9.244-5.4,7.883-6.288,17.756-6.43,25.476-.386,18.264,3.383,33.207,11.174,44.421.569.813.711,2.509,1.839,3.078l-.234-.376c1.259.63,2.539,1.646,2.062,2.732-1.371,3.129,7.74,10.046,14.16,12.332,11.712,4.175,27.284,3.82,38.235,2.316l.386-2.59c3.952-.538,6.735-1.564,7.517-3.169,1.381-1.178,2.56-2.235,3.586-3.21l.01-.01c.02-.02.061-.051.081-.071,4.947-4.744,6.095-7.446,6.613-11.56.5-4.033-.386-8.126-1.29-11.814,19.036,2.946-7.5-20.275,10.239-24.765a5.533,5.533,0,0,1,.62-.152c.518-.122,1.036-.244,1.534-.386a26.868,26.868,0,0,0,6.826-2.915c4.957-3.017,6.592-7.019,9.152-11.529A3.481,3.481,0,0,0,654.956,400.495Z" transform="translate(-201.275 -187.746)" fill="#2f2e41"/>
    <path id="Path_28" data-name="Path 28" d="M755.219,626.324c-.01,1.778-.031,4.266-.112,7.344q-.015.64-.03,1.31c-.132,5.658-.264,10.4-.477,15.674-.01.365-.02.721-.041,1.087-.285,7.354-.731,15.917-1.5,29.478-1.432,25.05-3.931,3.444-6.44,12.23-.122.437-.254.955-.376,1.564a28.349,28.349,0,0,1-1.91,6.43c-1.331.792-2.7,1.554-4.053,2.316-3.85,2.143-7.761,4.205-11.7,6.166-2.215,1.1-4.439,2.174-6.674,3.21-.356.163-.7.325-1.046.478a275.2,275.2,0,0,1-35.3,13.469c-2.357.711-4.7,1.4-7.08,2.042-2.479.691-4.957,1.341-7.466,1.95a271.1,271.1,0,0,1-56.977,7.71c-2.59.081-5.2.112-7.822.112-1.3,0-2.58-.01-3.88-.02-.4,0-.792-.01-1.189-.02-1.148-.03-2.336-.051-3.535-.081a270.881,270.881,0,0,1-68.414-11l-.945-.274c-1.463-.447-2.915-.884-4.368-1.351q-10.057-3.185-19.818-7.131-7.451-3-14.729-6.44a.343.343,0,0,1-.122-.061c-1.016-.467-2.042-.955-3.058-1.453-.132-.071-.274-.142-.416-.214q-5.683-2.773-11.245-5.81c-3.119-7.161-7.507-8.533-10.229-14.831a26.3,26.3,0,0,1-1.707-5.831c0-.02-.01-.041-.01-.071.285,3.779-1.209-6.7-.01-.041-.01-.122-.02-.254-.03-.406-.031-.366-.071-.813-.132-1.371-3.484-34.019-3.261-72.924-4.774-104.983q-.152-3.108-.315-5.953c-.03-.63-.071-1.249-.112-1.859.071-.183.152-.376.244-.559a1.016,1.016,0,0,1,.071-.152,1.652,1.652,0,0,1,.1-.183c.02-.03.051-.071.071-.1a.863.863,0,0,1,.051-.1c.092-.142.193-.294.3-.437.051-.061.091-.112.142-.162a.83.83,0,0,1,.122-.142.649.649,0,0,1,.112-.132c.041-.04.081-.091.132-.142a.306.306,0,0,1,.081-.081,2.069,2.069,0,0,1,.264-.254,9.752,9.752,0,0,1,1.158-.914c.142-.091.295-.183.437-.284a19.427,19.427,0,0,1,3.22-1.544c.386-.142.772-.274,1.189-.417.152-.04.295-.091.447-.142.224-.071.447-.142.681-.193,1.158-.345,2.407-.64,3.758-.914.163-.031.335-.061.508-.1.244-.051.5-.091.752-.132.345-.061.7-.122,1.056-.183,3.017-.477,6.44-.833,10.219-1.067l1.067-.061,1.26-.061c.356-.02.721-.03,1.087-.041s.721-.03,1.1-.041c1.026-.031,2.082-.061,3.159-.081,3.068-.061,6.3-.04,9.691.03,1.574.041,3.18.081,4.825.153.112,0,.213.01.315.01,1.432.051,2.875.112,4.358.193,1.036.051,2.082.1,3.129.163.985.061,1.981.122,2.986.193.782.041,1.564.1,2.357.153.67.051,1.341.1,2.011.142l.914.061c.5.041,1,.071,1.5.122,1.117.092,2.235.183,3.372.274s2.276.2,3.423.3,2.306.213,3.464.325l.345.031c1.057.112,2.113.213,3.179.325.244.021.5.041.742.071,1.017.1,2.054.222,3.08.331l.944.1c.8.087,1.6.163,2.406.258,1.067.122,2.154.234,3.21.376.822.091,1.646.183,2.468.284,1.29.153,2.6.315,3.911.488.5.061,1,.122,1.493.193,3.738.467,7.517.985,11.357,1.524,5.82.823,11.732,1.717,17.685,2.682s11.959,1.984,17.99,3.058c1.524.274,3.047.548,4.581.833l2.072.4c1.178.213,2.357.437,3.535.66s2.357.447,3.535.681l4.215.823c9.234,1.828,18.417,3.779,27.376,5.82,1.473.336,2.946.681,4.409,1.016q4.388,1.021,8.7,2.072c.792.183,1.574.376,2.357.569,1.95.488,3.9.975,5.82,1.473l.335.091c1.412.346,2.793.7,4.175,1.067q4.891,1.28,9.62,2.59,3.139.868,6.207,1.757c3.057.884,6.054,1.778,8.969,2.682.722.223,1.443.447,2.154.66,2.133.66,4.236,1.331,6.278,2,1.625.528,3.21,1.067,4.774,1.605s3.1,1.077,4.6,1.615c.965.345,1.92.711,2.875,1.057,1.371.508,2.722,1.016,4.043,1.524.406.152.8.315,1.2.467.254.112.5.2.741.3.478.193.965.376,1.432.569s.945.376,1.412.579c.457.183.924.376,1.371.569s.9.376,1.351.579c.376.152.742.315,1.1.477.721.315,1.443.63,2.143.955.345.163.691.315,1.036.478l.792.366c.112.061.224.112.335.163.254.122.518.254.772.376.589.274,1.168.569,1.737.843.762.386,1.5.772,2.214,1.148s1.422.772,2.093,1.148c.112.061.213.122.325.183.152.081.3.173.457.254.518.294,1.016.6,1.514.894.975.6,1.9,1.189,2.763,1.778.193.132.376.264.569.386.64.457,1.25.9,1.819,1.361,0,.01,0,.01.01.01.193.142.376.295.559.437.152.142.315.264.467.406.528.457,1.016.894,1.463,1.341a5.753,5.753,0,0,1,.427.437,1.235,1.235,0,0,1,.162.163c.2.2.386.406.559.609a.576.576,0,0,1,.071.091c.244.284.467.569.681.853.1.142.213.284.3.427.122.173.244.356.345.528.092.142.173.295.254.437a7.346,7.346,0,0,1,.548,1.148,5.305,5.305,0,0,1,.274.833A5.962,5.962,0,0,1,755.219,626.324Z" transform="translate(-202.63 -184.654)" fill="#2f2e41"/>
    <path id="Path_29" data-name="Path 29" d="M755.219,626.324c-.01,1.778-.03,4.266-.112,7.344-.01.426-.03.863-.041,1.31-.1,4.317-.254,9.65-.467,15.674-.01.366-.02.721-.041,1.087-.284,7.354-.732,15.918-1.5,29.479-1.432,25.05-3.931,3.444-6.44,12.23-6.968-4.287-14.607-8.776-22.774-13.388q-2.209-1.25-4.46-2.509c-16.334-9.112-34.578-18.66-53.624-28.117-.752-.376-1.514-.752-2.265-1.118-43.629-21.565-91.25-42.542-129.83-56.539-7.446-2.7-14.556-5.14-21.24-7.283-14.079-4.5-26.248-7.649-35.614-9.01-9.752-1.422-16.486-.914-19.209,2.021q-.152-3.108-.315-5.953-.061-.945-.122-1.859c.063-.167.144-.327.223-.487.011-.024.019-.048.031-.071a1.026,1.026,0,0,1,.071-.152,1.694,1.694,0,0,1,.1-.183,1.092,1.092,0,0,1,.122-.2c.091-.142.193-.294.3-.437a3.523,3.523,0,0,1,.264-.3.644.644,0,0,1,.112-.132c.041-.041.081-.092.132-.142a.308.308,0,0,1,.081-.081,2.061,2.061,0,0,1,.264-.254,9.772,9.772,0,0,1,1.158-.914c.142-.092.295-.183.437-.285a19.425,19.425,0,0,1,3.22-1.544c.386-.142.772-.274,1.189-.417.152-.04.295-.091.447-.142.223-.071.447-.142.681-.193,1.158-.345,2.407-.64,3.758-.914.406-.081.833-.163,1.26-.234.345-.061.7-.122,1.056-.183,3.017-.477,6.44-.833,10.219-1.067l1.067-.061,1.26-.061c.356-.02.721-.031,1.087-.041s.721-.03,1.1-.041c1.026-.03,2.082-.061,3.159-.081,3.068-.051,6.3-.03,9.691.041,1.575.03,3.179.081,4.825.152.1,0,.213.01.315.01,1.432.041,2.885.112,4.358.183,1.036.051,2.082.1,3.129.163.985.061,1.981.122,2.986.193.782.041,1.564.1,2.357.153.671.051,1.341.1,2.011.142l2.417.183c1.118.091,2.235.183,3.372.274s2.276.2,3.423.3,2.306.213,3.464.325l.346.031c1.056.112,2.113.213,3.179.325q8.868.9,18.254,2.1,5.607.716,11.357,1.534c5.821.823,11.733,1.717,17.685,2.672s11.959,1.984,17.99,3.057c1.524.274,3.047.548,4.581.833q2.8.518,5.607,1.056c1.178.223,2.357.447,3.535.681l4.216.823c9.234,1.828,18.416,3.779,27.376,5.821,1.473.335,2.946.681,4.409,1.016q4.388,1.021,8.7,2.072c.792.193,1.574.386,2.357.579q2.941.731,5.821,1.463v.01c.112.02.223.051.335.081,1.4.356,2.793.711,4.175,1.077q4.891,1.28,9.62,2.58c2.092.589,4.165,1.168,6.206,1.757,3.057.894,6.054,1.788,8.969,2.682.721.224,1.443.447,2.154.66q3.2,1.006,6.278,2c1.625.529,3.21,1.067,4.774,1.605s3.1,1.077,4.6,1.615c.975.345,1.93.7,2.875,1.046,1.381.508,2.722,1.016,4.043,1.534.406.152.8.315,1.2.467.742.284,1.463.579,2.174.874.477.183.945.376,1.412.579.457.183.925.376,1.372.569s.9.376,1.351.579c.376.152.741.315,1.1.477.721.315,1.443.63,2.143.955.346.162.691.315,1.036.477l.792.366c.112.061.223.112.335.162.863.406,1.7.813,2.509,1.219.762.386,1.5.772,2.215,1.148.843.447,1.646.884,2.418,1.331.152.081.3.173.457.254.518.295,1.016.6,1.514.894.975.6,1.9,1.188,2.763,1.778s1.646,1.168,2.387,1.747c0,.01,0,.01.01.01.355.284.7.569,1.026.843.528.457,1.016.894,1.463,1.341a5.751,5.751,0,0,1,.427.437,1.235,1.235,0,0,1,.163.162c.213.234.427.467.63.7.244.284.467.569.681.853.1.142.213.284.3.427.122.173.244.355.346.528.091.142.173.295.254.437a7.352,7.352,0,0,1,.548,1.148,6.151,6.151,0,0,1,.274.833,5.907,5.907,0,0,1,.173.823Z" transform="translate(-202.63 -184.654)" opacity="0.2"/>
    <text id="Web_developer" data-name="Web developer" transform="translate(99.346 216)" fill="#313131" font-size="27" font-family="Poppins-Regular, Poppins"><tspan x="0" y="0">Web developer</tspan></text>
  </g>
</svg>
